{"title":"The Barrens (2012).DVDrip.XviD - Italian.Ac3.5.1.Sub.ita.MIRCrew","uid":12006164,"size":1787972306,"categoryP":"video","categoryS":"movies","magnet":"?xt=urn:btih:1661700b873eaf663a6afc5660e50146947a4986&amp;dn=The+Barrens+%282012%29.DVDrip.XviD+-+Italian.Ac3.5.1.Sub.ita.MIRCrew&amp;tr=udp%3A%2F%2Ftracker.openbittorrent.com%3A80&amp;tr=udp%3A%2F%2Fopen.demonii.com%3A1337&amp;tr=udp%3A%2F%2Ftracker.coppersurfer.tk%3A6969&amp;tr=udp%3A%2F%2Fexodus.desync.com%3A6969","seeders":2,"leechers":3,"uploader":"robbyrs4","files":3,"time":1433878776,"description":"The Barrens (2012).DVDrip.XviD - Italian.Ac3.5.1.Sub.ita.MIRCrew\n\n[center]\n\n[color=red][b][img]http://s19.postimg.org/w9ws99nmb/banner_mircrew_original_2.png[/img]\n\n[u]NO FOUND ONLY ORIGINAL RELEASE[/u]\n\nThe Barrens (2012)\n\n[img]http://extraimago.com/images/2015/06/09/w.jpg[/img]\n\n\n[URL=http://www.imdb.com/title/tt2050633/][IMG]http://www.userlogos.org/files/logos/Sucka/imdb_new.png[/IMG][/URL]  \n\n[img]http://s19.postimg.org/vz5tzn42b/1_scheda.png[/img]\n\nCategory: Movies Horror \nRuntime: 94 min | \n\nCountry: USA, Canada  \nLanguage: English\nDirector:Darren Lynn Bousman \nRelease: 30 November 2012 (Germany) \nGenre: Horror\n\n[img]http://s19.postimg.org/q8fnlww2b/1_cast.png[/img]\n\nStephen Moyer, Mia Kirshner, Allie MacDonald, Peter DaCunha, David Keeley, Erik Knudsen, Shamier Anderson, Max Topplin, Michael Copeman, Shawn Ashmore, Athena Karkanis, J. LaRose, Chantelle Chung, Naomi Snieckus, Matt Baram\t\n   \n[img]http://s19.postimg.org/okgi79i6r/1_trama.png[/img]. \n\nRichard Marlowe decide di trascorrere un fine settimana con la sua famiglia nella pineta di Wharton State, terra del leggendario Diavolo del Jersey. La vacanza rivela sin da subito alcuni inquietanti imprevisti come il ritrovamento di alcuni cadaveri di animali della foresta misteriosamente mutilati, la scomparsa di un ragazzo del campeggio e una strana febbre che coglie di sorpresa Richard.....\n\n[img]http://s19.postimg.org/fzn6g380j/1_story.png[/img]\n\nA man takes his family on a camping trip and becomes convinced they are being stalked by the legendary monster of the New Jersey Pine Barrens: the Jersey Devil..................\n &lt;a href=&quot;\nhttp://extraimago.com/images/2015/06/09/vlcsnap-2015-06-09-18h56m38s235.png[/img]&quot; rel=&quot;nofollow&quot; target=&quot;_NEW&quot;&gt;\nhttp://extraimago.com/images/2015/06/09/vlcsnap-2015-06-09-18h56m38s235.png[/img]&lt;/a&gt; &lt;a href=&quot;\nhttp://extraimago.com/images/2015/06/09/vlcsnap-2015-06-09-18h56m43s30.png[/img]&quot; rel=&quot;nofollow&quot; target=&quot;_NEW&quot;&gt;\nhttp://extraimago.com/images/2015/06/09/vlcsnap-2015-06-09-18h56m43s30.png[/img]&lt;/a&gt; &lt;a href=&quot;\nhttp://extraimago.com/images/2015/06/09/vlcsnap-2015-06-09-19h27m07s87.png[/img]&quot; rel=&quot;nofollow&quot; target=&quot;_NEW&quot;&gt;\nhttp://extraimago.com/images/2015/06/09/vlcsnap-2015-06-09-19h27m07s87.png[/img]&lt;/a&gt;\n\n\n[IMG]http://img153.imageshack.us/img153/3158/restateinseedblood.gif[/img]\n\n\n[img]http://imgur.com/lvhU6.gif[/img]\n\n\n[img]http://s19.postimg.org/a2jaz9qvn/1_dati.png[/img]\n\n\n[spoiler]\nGeneral\nComplete name                            : The Barrens (2012).ita.eng.sub.ita.MIRCrewThe Barrens (2012).ita.eng.sub.ita.MIRCrew.avi\nFormat                                   : AVI\nFormat/Info                              : Audio Video Interleave\nFile size                                : 1.66 GiB\nDuration                                 : 1h 33mn\nOverall bit rate                         : 2 543 Kbps\nWriting application                      : VirtualDubMod 1.5.4.1 (build 2178/release)\nWriting library                          : VirtualDubMod build 2178/release\n\nVideo\nID                                       : 0\nFormat                                   : MPEG-4 Visual\nFormat profile                           : Advanced Simple@L5\nFormat settings, BVOP                    : 1\nFormat settings, QPel                    : No\nFormat settings, GMC                     : No warppoints\nFormat settings, Matrix                  : Custom\nCodec ID                                 : XVID\nCodec ID/Hint                            : XviD\nDuration                                 : 1h 33mn\nBit rate                                 : 2 088 Kbps\nWidth                                    : 720 pixels\nHeight                                   : 384 pixels\nDisplay aspect ratio                     : 1.875\nFrame rate                               : 25.000 fps\nColor space                              : YUV\nChroma subsampling                       : 4:2:0\nBit depth                                : 8 bits\nScan type                                : Progressive\nCompression mode                         : Lossy\nBits/(Pixel*Frame)                       : 0.302\nStream size                              : 1.36 GiB (82%)\nWriting library                          : XviD 64\n\nAudio\nID                                       : 1\nFormat                                   : AC-3\nFormat/Info                              : Audio Coding 3\nMode extension                           : CM (complete main)\nCodec ID                                 : 2000\nDuration                                 : 1h 33mn\nBit rate mode                            : Constant\nBit rate                                 : 448 Kbps\nChannel(s)                               : 6 channels\nChannel positions                        : Front: L C R, Side: L R, LFE\nSampling rate                            : 48.0 KHz\nBit depth                                : 16 bits\nCompression mode                         : Lossy\nStream size                              : 299 MiB (18%)\nAlignment                                : Split accross interleaves\nInterleave, duration                     : 96 ms (2.40 video frames)\nInterleave, preload duration             : 96 ms\nLanguage                                 : Italian\n\n\n[/spoiler]\n\n[/color][/b][/center]","torrent":{"xt":"urn:btih:1661700b873eaf663a6afc5660e50146947a4986","amp;dn":"The+Barrens+%282012%29.DVDrip.XviD+-+Italian.Ac3.5.1.Sub.ita.MIRCrew","amp;tr":["udp%3A%2F%2Ftracker.openbittorrent.com%3A80","udp%3A%2F%2Fopen.demonii.com%3A1337","udp%3A%2F%2Ftracker.coppersurfer.tk%3A6969","udp%3A%2F%2Fexodus.desync.com%3A6969"],"infoHash":"1661700b873eaf663a6afc5660e50146947a4986","infoHashBuffer":{"type":"Buffer","data":[22,97,112,11,135,62,175,102,58,106,252,86,96,229,1,70,148,122,73,134]},"announce":[],"urlList":[]}}